<?xml version="1.0" encoding="UTF-8" standalone="no"?>
<svg
   xmlns:dc="http://purl.org/dc/elements/1.1/"
   xmlns:cc="http://creativecommons.org/ns#"
   xmlns:rdf="http://www.w3.org/1999/02/22-rdf-syntax-ns#"
   xmlns:svg="http://www.w3.org/2000/svg"
   xmlns="http://www.w3.org/2000/svg"
   xmlns:sodipodi="http://sodipodi.sourceforge.net/DTD/sodipodi-0.dtd"
   xmlns:inkscape="http://www.inkscape.org/namespaces/inkscape"
   viewBox="0 0 401.33334 401.33335"
   height="401.33334"
   width="401.33334"
   xml:space="preserve"
   id="svg2"
   version="1.1"
   inkscape:version="0.92.3 (2405546, 2018-03-11)"
   sodipodi:docname="Logo_UDO.svg"><sodipodi:namedview
     pagecolor="#ffffff"
     bordercolor="#666666"
     borderopacity="1"
     objecttolerance="10"
     gridtolerance="10"
     guidetolerance="10"
     inkscape:pageopacity="0"
     inkscape:pageshadow="2"
     inkscape:window-width="1024"
     inkscape:window-height="576"
     id="namedview130"
     showgrid="false"
     inkscape:zoom="0.961794"
     inkscape:cx="200.66667"
     inkscape:cy="200.66667"
     inkscape:window-x="0"
     inkscape:window-y="0"
     inkscape:window-maximized="1"
     inkscape:current-layer="svg2" /><metadata
     id="metadata8"><rdf:RDF><cc:Work
         rdf:about=""><dc:format>image/svg+xml</dc:format><dc:type
           rdf:resource="http://purl.org/dc/dcmitype/StillImage" /><dc:title></dc:title></cc:Work></rdf:RDF></metadata><defs
     id="defs6" /><g
     id="g4764"
     transform="matrix(0.99842827,0,0,0.99842343,0.00492601,-0.58164687)"><path
       inkscape:connector-curvature="0"
       d="m 200.97866,399.99219 c 109.56933,0 198.424,-88.85778 198.424,-198.42685 0,-109.567996 -88.85467,-198.4253267 -198.424,-198.4253267 -109.568796,0 -198.4260601,88.8573307 -198.4260601,198.4253267 0,109.56907 88.8572641,198.42685 198.4260601,198.42685"
       style="fill:#ff6600;fill-opacity:1;fill-rule:evenodd;stroke:none"
       id="path14" /><g
       transform="matrix(0.13333333,0,0,-0.13333333,0,402.66667)"
       id="g16"><path
         inkscape:connector-curvature="0"
         d="m 1507.34,20.0586 c 821.77,0 1488.18,666.4334 1488.18,1488.2014 0,821.76 -666.41,1488.19 -1488.18,1488.19 C 685.574,2996.45 19.1445,2330.02 19.1445,1508.26 19.1445,686.492 685.574,20.0586 1507.34,20.0586 Z"
         style="fill:none;stroke:#fff200;stroke-width:28.34630013;stroke-linecap:butt;stroke-linejoin:miter;stroke-miterlimit:22.92560005;stroke-dasharray:none;stroke-opacity:1"
         id="path18" /></g><path
       d="m 387.35999,233.88801 -11.29067,-1.97334 -0.096,0.54534 c -0.30933,1.76266 0.016,3.11733 0.97067,4.104 0.94933,0.99066 2.49733,1.78 4.64533,2.36933 l -0.13866,0.79733 -14.568,-2.54533 0.14,-0.79733 c 1.62533,0.112 2.98533,0.004 4.08,-0.324 1.104,-0.37067 1.88533,-0.88 2.37866,-1.48934 0.46267,-0.652 0.80667,-1.63066 1.03334,-2.93066 l -7.85067,-1.37334 c -1.50933,-0.26266 -2.44133,-0.38266 -2.79733,-0.316 -0.40267,0.06 -0.69734,0.268 -0.97334,0.608 -0.30933,0.292 -0.49733,0.864 -0.63733,1.66267 l -0.28533,1.63733 c -0.456,2.60134 -0.22534,4.76267 0.712,6.57067 0.90533,1.756 2.55466,3.212 4.91066,4.31867 l -0.13066,0.75466 -8.63734,-2.80666 4.19734,-24.01067 0.756,0.132 -0.16267,0.92267 c -0.13867,0.79733 -0.0893,1.49733 0.0813,2.00533 0.144,0.41333 0.436,0.724 0.86267,1.01467 0.30667,0.228 1.13733,0.41733 2.52267,0.65866 l 18.30266,3.19867 c 1.25867,0.22 2.01467,0.352 2.32267,0.31867 0.484,-0.0467 0.90667,-0.232 1.22533,-0.56534 0.512,-0.47066 0.8,-1.112 0.96,-2.03733 l 0.16267,-0.92267 0.75467,0.13067 -4.06534,23.25467 -8.22666,-1.43734 0.132,-0.75466 c 2.08666,-0.068 3.65333,-0.35734 4.61866,-0.92267 1.00534,-0.56267 1.852,-1.44933 2.464,-2.72933 0.38534,-0.71067 0.76,-2.116 1.12667,-4.21467 z m 4.04267,-17.212 -7.62267,-0.14534 0.0147,-0.76666 c 1.75333,-0.392 3.04133,-0.88 3.816,-1.376 0.78,-0.53867 1.42933,-1.24934 1.87466,-2.22 0.26667,-0.508 0.41334,-1.444 0.436,-2.72134 l 0.0413,-2.12933 -21.76267,-0.416 c -1.40533,-0.028 -2.34267,0.0413 -2.68933,0.20533 -0.38534,0.16267 -0.68934,0.45467 -0.95334,0.92 -0.30666,0.46 -0.44666,1.09734 -0.46133,1.864 l -0.0187,0.93734 -0.76666,-0.0147 0.28133,-14.73466 0.76667,0.0147 -0.016,0.93467 c -0.0173,0.81067 0.14133,1.452 0.38666,1.96933 0.20667,0.38667 0.54267,0.648 1.00667,0.87067 0.33733,0.17467 1.188,0.27733 2.59333,0.304 l 21.76267,0.416 0.0373,-2.04267 c 0.0373,-1.91733 -0.31866,-3.28533 -1.112,-4.196 -1.12533,-1.21466 -2.688,-2.01333 -4.76933,-2.35066 l 0.0173,-0.808 7.62267,0.14533 z m -3.29467,-51.65467 -15.096,16.552 11.98,-1.91066 c 1.68667,-0.26934 2.78667,-0.704 3.30133,-1.26 0.696,-0.80534 0.9,-1.96267 0.60934,-3.51734 l 0.75733,-0.12133 1.47333,9.23867 -0.75866,0.12 c -0.31467,-1.16 -0.65334,-1.92667 -0.97467,-2.308 -0.27067,-0.34534 -0.74533,-0.61734 -1.32933,-0.74 -0.54,-0.12934 -1.52934,-0.10134 -2.83734,0.10666 l -23.24133,3.704 -0.11467,-0.716 20.23734,-22.56133 -17.75867,2.832 c -1.60133,0.25333 -2.60133,0.76 -3.07333,1.61467 -0.43467,0.804 -0.59467,1.69466 -0.44667,2.62266 l 0.108,0.67467 -0.75867,0.12133 -1.58133,-9.91333 0.75867,-0.12 c 0.24933,1.56267 0.75466,2.56267 1.48133,3.052 0.69333,0.53733 1.796,0.66667 3.27067,0.43067 l 19.74133,-3.148 0.62133,-0.70534 c 0.664,-0.71066 1.04134,-1.33333 1.22667,-1.796 0.13733,-0.49866 0.156,-1.192 0.0653,-2.044 l 0.75734,-0.12133 z m -10.65467,-31.12666 -10.79866,3.94666 0.19066,0.52267 c 0.616,1.68533 1.57867,2.69733 2.90134,3.07867 1.32266,0.38133 3.06266,0.292 5.22266,-0.27067 l 0.28,0.76267 -13.92933,5.092 -0.28,-0.76267 c 1.46667,-0.71867 2.596,-1.49333 3.38133,-2.32933 0.77334,-0.87334 1.196,-1.71067 1.324,-2.48267 0.0707,-0.8 -0.12133,-1.82133 -0.576,-3.06667 l -7.50533,2.74134 c -1.44667,0.52933 -2.31333,0.89333 -2.592,1.12933 -0.31733,0.25333 -0.47067,0.58267 -0.54,1.016 -0.12267,0.40933 0.003,1 0.28133,1.76267 l 0.57334,1.56666 c 0.908,2.488 2.192,4.25067 3.91066,5.352 1.668,1.07334 3.83067,1.51334 6.43467,1.288 l 0.26267,0.72267 -8.91067,1.892 -8.39067,-22.96267 0.72267,-0.26533 0.32267,0.884 c 0.27866,0.76267 0.67333,1.348 1.07733,1.70267 0.33067,0.28666 0.73867,0.40933 1.256,0.44933 0.37867,0.0413 1.196,-0.21067 2.52133,-0.696 l 17.50134,-6.396 c 1.204,-0.43867 1.92666,-0.704 2.17866,-0.88667 0.39867,-0.28133 0.66934,-0.65466 0.78,-1.104 0.21067,-0.66933 0.13734,-1.36933 -0.18533,-2.25333 l -0.32267,-0.88267 0.72267,-0.264 8.12667,22.23867 -7.868,2.87467 -0.26534,-0.72267 c 1.78134,-1.104 2.996,-2.13867 3.55067,-3.116 0.59067,-0.98933 0.88267,-2.18933 0.77467,-3.604 -0.0227,-0.81067 -0.40267,-2.21867 -1.13734,-4.22533 z m -29.35466,-2.78667 -0.68534,0.348 -6.69733,-13.11333 0.68533,-0.348 0.42534,0.83333 c 0.368,0.72133 0.828,1.25067 1.272,1.55067 0.36533,0.244 0.78533,0.316 1.30266,0.29333 0.38134,-0.004 1.16267,-0.352 2.42,-0.99067 l 16.61334,-8.44 c 1.296,-0.65866 2.07733,-1.10266 2.30533,-1.41066 0.26267,-0.32534 0.39467,-0.72534 0.448,-1.27734 0.0173,-0.53466 -0.13867,-1.12266 -0.508,-1.844 l -0.42533,-0.83333 0.68533,-0.348 6.69867,13.11333 -0.68534,0.348 -0.42666,-0.83333 c -0.36667,-0.71867 -0.77334,-1.22933 -1.272,-1.55067 -0.364,-0.244 -0.74534,-0.33733 -1.30134,-0.29333 -0.344,-0.0147 -1.16266,0.35467 -2.42133,0.99333 l -16.612,8.44 c -1.25867,0.64 -2.07733,1.10267 -2.304,1.40667 -0.26667,0.32667 -0.39867,0.72933 -0.41333,1.26267 -0.0533,0.552 0.12133,1.17866 0.46933,1.86 z m -8.26667,-36.813332 -6.52133,4.550666 c -1.26,0.878667 -1.98133,1.485336 -2.20133,1.845336 -0.228,0.41866 -0.30267,0.83333 -0.244,1.36533 0.11866,0.54133 0.504,1.31067 1.26266,2.392 l -0.632,0.43867 -8.28933,-11.812002 0.632,-0.44 c 0.73333,1.046666 1.352,1.704 1.83067,1.94 0.444,0.26 0.896,0.310666 1.33333,0.262666 0.41467,-0.08133 1.23333,-0.548 2.49333,-1.428 l 15.07067,-10.514666 c 1.26266,-0.88 1.98533,-1.489333 2.23866,-1.874667 0.19334,-0.392 0.268,-0.805333 0.20934,-1.337333 -0.0933,-0.504 -0.504,-1.310667 -1.23734,-2.356 l 0.632,-0.44 7.50534,10.696 c 1.95733,2.788 3.22533,4.966666 3.744,6.525333 0.51866,1.558667 0.51466,3.116 0.052,4.686667 -0.45334,1.510662 -1.38667,2.784002 -2.78934,3.761332 -1.716,1.19733 -3.59333,1.57467 -5.57066,1.13733 -1.24,-0.27733 -2.548,-1.02533 -3.87467,-2.17466 l -3.96533,11.016 c -0.504,1.44133 -0.76667,2.404 -0.792,2.88933 -0.0333,0.69867 0.12533,1.36667 0.52933,2.01867 l -0.63067,0.44 -5.088,-7.248 5.35467,-14.841336 z m 11.38933,-7.945333 -10.164,7.091999 0.68534,0.974667 c 1.1,1.569333 2.072,2.656 2.88933,3.225333 0.844,0.606667 1.78533,0.833334 2.87333,0.748 1.08934,-0.088 2.216,-0.561333 3.44267,-1.417333 1.752,-1.222667 2.78133,-2.510667 3.036,-3.934667 0.28933,-1.446666 -0.21867,-3.065333 -1.492,-4.875999 z M 329.67333,60.554679 c 3.424,2.962666 5.19866,6.374666 5.33199,10.354666 0.164,3.952 -1.196,7.468 -4.05066,10.524 -2.448,2.618666 -5.352,4.225333 -8.74533,4.794666 -4.53334,0.726667 -8.62667,-0.646666 -12.30667,-4.084 -3.70933,-3.468 -5.44133,-7.422666 -5.108,-11.843999 0.27467,-3.481334 1.67867,-6.608 4.21467,-9.32 2.85466,-3.056 6.30266,-4.621333 10.284,-4.756 4.012,-0.105333 7.47466,1.378667 10.38,4.330667 z m -0.716,1.141333 c -1.87067,-1.748 -4.20667,-2.124 -7.01067,-1.122667 -2.268,0.802667 -4.80133,2.698667 -7.568,5.66 -3.29467,3.524 -5.11733,6.725333 -5.444,9.573333 -0.236,2 0.42667,3.669333 1.98533,5.126667 1.06,0.990666 2.16667,1.557333 3.316,1.7 1.51734,0.188 3.16534,-0.197334 5.004,-1.166667 1.83867,-0.966667 3.80934,-2.574667 5.96534,-4.882667 2.53466,-2.710666 4.208,-4.999999 4.96266,-6.807999 0.74934,-1.866667 1.00134,-3.385334 0.716,-4.702667 -0.25333,-1.292 -0.89733,-2.416 -1.92666,-3.377333 z m -53.35467,-34.198666 -4.824,10.414666 0.504,0.233334 c 1.62533,0.752 3.02,0.785333 4.22133,0.12 1.20267,-0.666667 2.36667,-1.96 3.492,-3.882667 l 0.73467,0.338667 -6.22,13.433333 -0.736,-0.338667 c 0.528,-1.544 0.77067,-2.888 0.73733,-4.032 -0.072,-1.162666 -0.36666,-2.049333 -0.824,-2.686666 -0.51466,-0.613334 -1.37333,-1.198667 -2.57333,-1.754667 l -3.352,7.241333 c -0.64533,1.394667 -1.00267,2.261334 -1.02933,2.625334 -0.0453,0.402666 0.0787,0.743999 0.33733,1.097333 0.204,0.376 0.708,0.702666 1.444,1.044 l 1.51067,0.7 c 2.4,1.110666 4.54933,1.448 6.54133,1.006666 1.93333,-0.418666 3.76667,-1.64 5.44533,-3.636 l 0.696,0.324 -4.944,7.628 -22.14533,-10.255999 0.32267,-0.697334 0.852,0.396 c 0.736,0.338667 1.42533,0.472 1.95866,0.437334 0.44,-0.032 0.81467,-0.233334 1.20667,-0.569334 0.296,-0.238666 0.696,-0.996 1.28667,-2.272 l 7.81733,-16.879999 c 0.54,-1.162667 0.86,-1.858667 0.91067,-2.168 0.0787,-0.477334 0.0107,-0.933334 -0.232,-1.329334 -0.32267,-0.618666 -0.872,-1.061333 -1.72267,-1.454666 l -0.852,-0.396 0.32267,-0.696 21.448,9.936 -3.51467,7.587999 -0.696,-0.324 c 0.47333,-2.037333 0.596,-3.623999 0.296,-4.705333 -0.28133,-1.117333 -0.92267,-2.169333 -2,-3.089333 -0.58933,-0.554667 -1.852,-1.281333 -3.78667,-2.177333 z m -51.60667,12.570666 0.188,-0.744 0.90934,0.229334 c 0.78533,0.196 1.43733,0.228 1.91466,0.084 0.51734,-0.133334 0.88934,-0.392 1.208,-0.794667 0.19867,-0.257333 0.49067,-1.066667 0.844,-2.472 l 4.532,-18.035999 c 0.352,-1.406667 0.48667,-2.296 0.404,-2.666667 -0.0293,-0.404 -0.288,-0.777333 -0.66933,-1.181333 -0.35333,-0.352 -0.94267,-0.633334 -1.72933,-0.829334 l -0.90934,-0.229333 0.18667,-0.742667 12.28533,3.085334 c 3.26934,0.82 5.76134,1.930666 7.56934,3.308 2.12933,1.677333 3.57466,3.802666 4.296,6.358666 0.692,2.501333 0.68666,5.138667 -0.0187,7.953333 -0.47733,1.902667 -1.21467,3.609333 -2.24,5.065333 -1.03733,1.497334 -2.19733,2.616 -3.41867,3.452 -1.252,0.782667 -2.588,1.373334 -4.06666,1.66 -1.448,0.34 -3.14534,0.441334 -5.08934,0.304 -0.82933,-0.03333 -2.17333,-0.281333 -3.91066,-0.718666 z m 16.96,-23.222666 -5.372,21.385333 c -0.28133,1.117333 -0.41733,1.829333 -0.35466,2.108 0.0213,0.270667 0.17466,0.529333 0.392,0.714667 0.32266,0.302666 0.78666,0.548 1.49066,0.725333 2.23334,0.562667 4.16667,0.212 5.71067,-1.026667 2.132,-1.662666 3.76933,-4.681333 4.86,-9.025333 0.884,-3.517333 1.05333,-6.465333 0.46667,-8.852 -0.45334,-1.874666 -1.28934,-3.273333 -2.54934,-4.203999 -0.848,-0.652 -2.408,-1.265334 -4.644,-1.825334 z m -69.08799,24.318666 -0.0667,-0.766666 0.93467,-0.08 c 0.81066,-0.06933 1.44,-0.250667 1.84266,-0.544 0.448,-0.296 0.716,-0.662667 0.88667,-1.150667 0.10267,-0.308 0.11467,-1.166667 -0.0107,-2.614667 l -1.6,-18.567999 c -0.12266,-1.448 -0.28533,-2.336 -0.48266,-2.662667 -0.16267,-0.373333 -0.52934,-0.64 -1.02267,-0.898666 -0.448,-0.216 -1.09867,-0.290667 -1.90933,-0.222667 l -0.93467,0.08133 -0.0653,-0.766666 12.648,-1.089334 c 3.36533,-0.289333 6.088,-0.052 8.25066,0.664 2.56667,0.894667 4.62934,2.433334 6.148,4.618667 1.47067,2.146667 2.33067,4.648 2.58134,7.544 0.168,1.958666 0.0253,3.814666 -0.46934,5.532 -0.492,1.757333 -1.22666,3.193333 -2.11066,4.385333 -0.928,1.153333 -2.00134,2.145333 -3.30934,2.901333 -1.26266,0.796 -2.83866,1.446667 -4.72533,1.950667 -0.79333,0.241333 -2.148,0.444 -3.93733,0.597333 z m 8.48266,-27.542666 1.896,22.016 c 0.0987,1.150666 0.20267,1.870666 0.352,2.114666 0.10667,0.248 0.33734,0.441334 0.60667,0.550667 0.4,0.178667 0.92267,0.261333 1.648,0.2 2.3,-0.198667 4.016,-1.161333 5.07467,-2.84 1.47733,-2.273333 2.044,-5.666666 1.65866,-10.14 -0.31333,-3.618666 -1.11733,-6.466666 -2.452,-8.541333 -1.04133,-1.626666 -2.28933,-2.674666 -3.78933,-3.150666 -1.01733,-0.338667 -2.696,-0.408 -4.99467,-0.209334 z m -23.96533,23.252 -9.53733,2.908 -0.33067,2.996 c -0.10933,0.968 -0.0467,1.752 0.12667,2.322666 0.23733,0.774667 0.68266,1.217334 1.408,1.396 0.42933,0.09333 1.37466,-0.01733 2.79866,-0.317333 l 0.22267,0.733333 -8.96667,2.733333 -0.224,-0.733333 c 0.92934,-0.46 1.58,-1.104 1.992,-1.942666 0.452,-0.850667 0.81734,-2.432 1.08,-4.784 l 3.096,-24.464 0.36534,-0.113333 16.49066,19.158666 c 1.58267,1.833333 2.716,2.914667 3.48667,3.258667 0.57333,0.270666 1.3,0.316 2.14,0.149333 l 0.22267,0.733333 -13.03867,3.977334 -0.224,-0.733334 0.52933,-0.16 c 1.06,-0.325333 1.744,-0.710666 2.06267,-1.121333 0.22267,-0.289333 0.28533,-0.666667 0.17467,-1.033333 -0.0747,-0.244 -0.18934,-0.474667 -0.34534,-0.696 -0.0787,-0.108 -0.444,-0.578667 -1.07066,-1.322667 z m -1.14,-1.257333 -6.82933,-8.072 -1.32,10.559999 z m -40.37347,27.949332 -0.3604,-0.678667 0.8292,-0.437333 c 0.71667,-0.381333 1.22494,-0.792 1.47907,-1.218666 0.298,-0.446667 0.4,-0.888 0.37093,-1.402667 -0.0292,-0.322667 -0.35213,-1.116 -1.03133,-2.4 l -8.70627,-16.434666 c -0.67906,-1.281334 -1.17493,-2.032 -1.48333,-2.254667 -0.29373,-0.278667 -0.73533,-0.384 -1.2916,-0.426667 -0.49373,-0.028 -1.1208,0.157334 -1.83747,0.538667 l -0.8292,0.437333 -0.3584,-0.678666 11.19587,-5.929333 c 2.9792,-1.578667 5.57293,-2.422667 7.83747,-2.608 2.70626,-0.177334 5.20213,0.430666 7.45,1.848 2.1896,1.4 3.95213,3.36 5.30893,5.925333 0.91867,1.733333 1.516,3.493333 1.72667,5.264 0.23466,1.808 0.12133,3.412 -0.22667,4.852 -0.40667,1.422666 -1.00533,2.754666 -1.91307,3.955999 -0.84786,1.225334 -2.0416,2.436 -3.5792,3.633334 -0.63533,0.532 -1.802,1.246666 -3.38533,2.085333 z m -2.94373,-28.611999 10.32493,19.489333 c 0.5396,1.017333 0.91667,1.64 1.15,1.806666 0.19587,0.185334 0.48134,0.274667 0.7688,0.266667 0.4396,0.008 0.95214,-0.117333 1.59174,-0.456 2.03533,-1.077333 3.23946,-2.633333 3.55613,-4.588 0.47293,-2.662666 -0.3312,-6.004 -2.42707,-9.962666 -1.69786,-3.204 -3.54786,-5.506667 -5.58333,-6.892 -1.5896,-1.086667 -3.14787,-1.564 -4.70827,-1.416 -1.06666,0.08267 -2.63746,0.674667 -4.67293,1.752 z m 0.98853,28.891999 0.45214,0.621333 -11.91467,8.670667 -0.452,-0.621333 0.75627,-0.549334 c 0.65413,-0.477333 1.10613,-1.014666 1.33533,-1.498666 0.18333,-0.396 0.19173,-0.822667 0.0855,-1.326667 -0.0625,-0.374667 -0.52707,-1.088 -1.35414,-2.225333 L 90.895864,51.901345 c -0.852133,-1.170666 -1.412533,-1.868 -1.752133,-2.044 -0.362533,-0.209333 -0.7792,-0.276 -1.3312,-0.241333 -0.531333,0.06933 -1.0896,0.317333 -1.743733,0.793333 l -0.756267,0.550667 -0.45,-0.621333 11.914533,-8.670667 0.45,0.621334 -0.758266,0.552 c -0.654267,0.474666 -1.095867,0.953333 -1.331334,1.496 -0.185333,0.397333 -0.216666,0.789333 -0.0896,1.329333 0.0396,0.341333 0.531334,1.089333 1.3584,2.224 l 10.929196,15.014666 c 0.82707,1.137333 1.4104,1.869333 1.74787,2.046667 0.36453,0.205333 0.7812,0.272 1.3104,0.204 0.55413,-0.03333 1.14587,-0.308 1.76467,-0.758667 z m -35.022929,-8.712 6.654134,6.622667 -0.614534,0.592 c -1.902133,-1.426667 -3.9104,-2.102667 -6.054133,-2.054667 -2.143733,0.04667 -3.875067,0.706667 -5.198,1.977334 -1.016666,0.974666 -1.5812,2.047999 -1.633333,3.165333 -0.08533,1.145333 0.231333,2.024 0.910533,2.733333 0.443734,0.46 0.918667,0.772 1.458267,0.904 0.75,0.226667 1.685466,0.216 2.745866,0.08533 0.787467,-0.165333 2.424934,-0.614666 4.943734,-1.377333 3.522933,-1.136 6.187466,-1.565333 8.022933,-1.317333 1.835333,0.248 3.358266,1.033333 4.658266,2.388 1.625067,1.692 2.398,3.789333 2.256267,6.292 -0.172933,2.530666 -1.243733,4.738666 -3.304133,6.719999 -0.645867,0.621334 -1.2896,1.121334 -2.022934,1.528 -0.6708,0.410667 -1.647866,0.872 -2.862533,1.329334 -0.6396,0.26 -1.127067,0.552 -1.435333,0.848 -0.2772,0.266666 -0.466667,0.622666 -0.564667,1.072 -0.1,0.513333 -0.02293,1.028 0.1792,1.604 l -0.554133,0.533333 -7.387467,-7.693333 0.554134,-0.533334 c 2.5,1.741334 4.956266,2.577334 7.312533,2.502667 2.352,-0.07067 4.239466,-0.818667 5.685333,-2.209333 1.1084,-1.064 1.704133,-2.226667 1.8188,-3.461334 0.08747,-1.265333 -0.285467,-2.269333 -1.083333,-3.101333 -0.441734,-0.46 -1.0376,-0.834666 -1.698,-1.026666 -0.689467,-0.226667 -1.504134,-0.274667 -2.4104,-0.173334 -0.908267,0.105334 -2.333333,0.466667 -4.277067,1.092 -2.7312,0.850667 -4.793733,1.352 -6.245866,1.504 -1.418667,0.118667 -2.714534,0.004 -3.9124,-0.381333 -1.231333,-0.357333 -2.272933,-1.012 -3.1896,-1.966667 -1.564667,-1.628 -2.281333,-3.605333 -2.202133,-5.866666 0.106266,-2.290667 1.081333,-4.293334 2.897866,-6.037333 0.645867,-0.62 1.350134,-1.178667 2.112533,-1.614667 0.612534,-0.349333 1.402134,-0.634667 2.372934,-0.976 1.002133,-0.313333 1.643733,-0.632 1.8896,-0.869333 0.277066,-0.264 0.402133,-0.564 0.377066,-0.836 0.0063,-0.301334 -0.193733,-0.818667 -0.6604,-1.553334 z m -17.339599,41.730666 6.254133,4.887999 c 1.210533,0.948 2.002133,1.45733 2.410533,1.56 0.468667,0.096 0.887467,0.044 1.377067,-0.16933 0.485333,-0.272 1.1124,-0.864 1.927067,-1.908 l 0.604133,0.47333 -8.9104,11.39733 -0.604133,-0.472 c 0.787466,-1.00933 1.237466,-1.79466 1.324933,-2.32133 0.122933,-0.50267 0.03547,-0.948 -0.135333,-1.35067 -0.195867,-0.372 -0.883334,-1.016 -2.093867,-1.964 L 48.249999,95.694678 c -1.2104,-0.945334 -2.002133,-1.457334 -2.443733,-1.585334 -0.433334,-0.07067 -0.852134,-0.01867 -1.343734,0.194667 -0.4584,0.237333 -1.1104,0.864 -1.898,1.872 l -0.606133,-0.472 8.068666,-10.321333 c 2.104134,-2.689333 3.822934,-4.541333 5.166667,-5.497333 1.341733,-0.954667 2.835467,-1.410667 4.475067,-1.429334 1.579066,-0.01067 3.072799,0.505334 4.418666,1.558667 1.645867,1.286667 2.552133,2.970667 2.706267,4.986667 0.09373,1.265333 -0.2416,2.737333 -0.956267,4.343999 l 11.7104,0.541334 c 1.527066,0.056 2.525066,0.02533 2.998,-0.09333 0.6792,-0.173333 1.272933,-0.521333 1.7812,-1.098666 l 0.604133,0.473333 -5.466667,6.993333 -15.779066,-0.742666 z m -10.927067,-8.544 9.75,7.622667 0.735467,-0.941334 c 1.183333,-1.512 1.943733,-2.762666 2.254133,-3.710666 0.335467,-0.982667 0.277067,-1.949334 -0.1208,-2.964 -0.398,-1.017333 -1.181333,-1.954667 -2.3584,-2.874667 -1.6812,-1.314666 -3.212533,-1.914666 -4.652,-1.74 -1.470933,0.149334 -2.875066,1.112 -4.241733,2.86 z m -17.080132,27.845329 10.139466,5.37067 0.2584,-0.48933 c 0.8396,-1.58267 0.95,-2.97334 0.35,-4.21067 -0.602133,-1.23333 -1.8312,-2.46667 -3.691733,-3.69067 l 0.3792,-0.71733 13.079199,6.92933 -0.3792,0.716 c -1.512533,-0.608 -2.8396,-0.924 -3.983333,-0.952 -1.166667,0.0107 -2.068666,0.25734 -2.727066,0.68 -0.6416,0.48134 -1.2708,1.30534 -1.8896,2.47467 l 7.049999,3.73333 c 1.356267,0.71867 2.204134,1.12134 2.566667,1.16934 0.4,0.0667 0.743733,-0.04 1.114667,-0.28 0.383333,-0.18267 0.739466,-0.67067 1.118666,-1.38667 l 0.777067,-1.46933 c 1.2396,-2.33734 1.6896,-4.464 1.356267,-6.47734 -0.316667,-1.952 -1.435334,-3.84933 -3.3396,-5.62933 l 0.3584,-0.67867 7.354133,5.344 -11.4208,21.56267 -0.6792,-0.36133 0.4396,-0.82934 c 0.3792,-0.716 0.547867,-1.39733 0.5416,-1.93066 -0.0083,-0.44 -0.1916,-0.82667 -0.506133,-1.23334 -0.220934,-0.312 -0.956267,-0.74933 -2.2,-1.408 l -16.435466,-8.70666 c -1.1312,-0.6 -1.8084,-0.95867 -2.112534,-1.02534 -0.474933,-0.104 -0.933333,-0.0573 -1.3416,0.16134 -0.635466,0.28933 -1.106266,0.81466 -1.543733,1.64266 l -0.4396,0.82934 -0.6792,-0.35734 11.062533,-20.884 7.3896,3.912 -0.360533,0.67734 c -2.008267,-0.58134 -3.587467,-0.78667 -4.6812,-0.548 -1.1312,0.224 -2.212534,0.80666 -3.1916,1.83333 -0.585467,0.56133 -1.3772,1.78133 -2.375067,3.66667 z m -9.681867,15.20667 0.7376,0.21333 c -0.1188,1.02934 0.152,2.08534 0.8,3.07067 0.533333,0.77467 1.852,2.04133 3.989467,3.85867 l 18.018799,15.35733 -0.1896,0.65467 -24.227066,3.08133 c -2.9396,0.34933 -4.6688,0.64933 -5.237466,0.92933 -0.556267,0.23734 -1.043734,0.85334 -1.475067,1.88267 l -0.737467,-0.212 3.747867,-12.984 0.7376,0.21333 -0.1188,0.408 c -0.343733,1.188 -0.456267,2.044 -0.247867,2.54534 0.0708,0.376 0.3624,0.592 0.7312,0.69866 0.245867,0.0707 0.545867,0.11467 0.9084,0.0853 0.35,0.012 1.316667,-0.10667 2.927067,-0.308 l 15.183333,-1.876 -10.493733,-8.83867 c -1.243867,-1.06933 -2.120934,-1.72133 -2.564667,-2.028 -0.456267,-0.264 -0.8416,-0.464 -1.2104,-0.57067 -0.4104,-0.11866 -0.7604,-0.13066 -1.158267,0.0187 -0.348,0.12267 -0.6876,0.38133 -0.9688,0.74267 -0.3708,0.51333 -0.706266,1.216 -0.9792,2.16 l -0.737466,-0.21334 z m 18.304666,38.06667 0.7584,0.12133 -2.325066,14.59333 -0.758267,-0.12133 0.147867,-0.92667 c 0.127066,-0.80266 0.06667,-1.504 -0.114534,-2.008 -0.15,-0.41466 -0.447866,-0.71866 -0.877066,-1.00666 -0.3104,-0.22267 -1.148,-0.39734 -2.5396,-0.62134 l -18.3896,-2.93066 c -1.435466,-0.22934 -2.327066,-0.32934 -2.6916,-0.212 -0.406266,0.108 -0.75,0.356 -1.11672,0.772 -0.329173,0.42533 -0.55,0.99466 -0.677093,1.796 l -0.147907,0.92666 -0.758333,-0.12 2.324987,-14.59466 0.7584,0.12133 -0.148,0.92667 c -0.127067,0.80266 -0.1,1.45733 0.114666,2.01066 0.15,0.41334 0.404134,0.71067 0.877067,1.00267 0.266667,0.216 1.147867,0.4 2.5396,0.62267 l 18.389466,2.93066 c 1.391733,0.224 2.3272,0.328 2.691733,0.21334 0.406267,-0.10667 0.75,-0.356 1.074934,-0.78 0.370933,-0.41867 0.598,-1.028 0.7188,-1.78934 z M 10.32812,205.11201 27.790666,191.18534 H 15.6948 c -1.704134,0 -2.854174,0.256 -3.450014,0.72534 -0.808333,0.68133 -1.191666,1.78666 -1.15,3.364 H 10.32812 v -9.32667 h 0.766666 c 0.129174,1.192 0.341667,2.00133 0.59792,2.42667 0.212507,0.384 0.637507,0.72533 1.191667,0.93733 0.510427,0.21333 1.489627,0.34 2.810427,0.34 h 23.466666 v 0.72533 L 15.6948,209.41467 h 17.929199 c 1.618667,0 2.683333,-0.34133 3.279067,-1.108 0.554266,-0.72266 0.852133,-1.576 0.852133,-2.51333 v -0.68133 h 0.766667 v 10.00933 h -0.766667 c 0,-1.57733 -0.3396,-2.64267 -0.9792,-3.23867 -0.595733,-0.63733 -1.6604,-0.93733 -3.152,-0.93733 H 13.692666 l -0.72288,0.59867 c -0.766666,0.596 -1.235413,1.14933 -1.491666,1.57466 -0.212494,0.46934 -0.339574,1.15067 -0.383334,2.00267 H 10.32812 Z m 5.683346,44.74533 -2.5,-14.312 0.754134,-0.13067 0.125066,0.712 c 0.183334,1.04934 0.4416,1.78267 0.722934,2.164 0.277066,0.34267 0.664533,0.58 1.0728,0.68 0.448,0.096 1.4292,0.0107 3.022933,-0.26933 l 13.6,-2.37733 c 2.477066,-0.43334 4.127066,-0.89334 4.858399,-1.40934 0.7312,-0.51733 1.293734,-1.26533 1.6916,-2.19866 0.35,-0.97334 0.454267,-2.112 0.225067,-3.41467 -0.262533,-1.51067 -0.8188,-2.712 -1.675067,-3.64533 -0.904133,-0.96534 -1.964533,-1.6 -3.2312,-1.9 -1.2688,-0.34 -3.412533,-0.22534 -6.352133,0.28666 l -11.333333,1.98134 c -1.258266,0.22133 -2.116666,0.50266 -2.618666,0.84666 -0.452134,0.38534 -0.7792,0.744 -0.914667,1.2 -0.191627,0.63867 -0.206213,1.54934 -0.0083,2.68267 l -0.754186,0.132 -1.679174,-9.61333 0.754174,-0.13067 0.10208,0.58667 c 0.131253,0.75733 0.418746,1.39866 0.8,1.85066 0.42292,0.44534 0.95204,0.74134 1.624973,0.88267 0.448,0.096 1.2604,0.04 2.393733,-0.15733 l 10.5376,-1.84267 c 3.2728,-0.57067 5.6624,-0.772 7.204133,-0.60933 1.508267,0.212 3.035333,1.02933 4.537467,2.452 1.5104,1.464 2.535466,3.62266 3.041733,6.52 0.418667,2.392 0.4124,4.34 0.0104,5.75066 -0.572933,1.91867 -1.4792,3.416 -2.698,4.364 -1.252,0.99867 -3.033333,1.69867 -5.343733,2.10267 l -13.6,2.37733 c -1.593733,0.27867 -2.587466,0.53734 -2.935333,0.772 -0.35,0.23334 -0.633333,0.58534 -0.762533,1.084 -0.177067,0.464 -0.122934,1.27734 0.0812,2.452 z"
       style="fill:#ffff00;fill-opacity:1;stroke:none;stroke-width:0.28800002;stroke-linecap:butt;stroke-linejoin:miter;stroke-miterlimit:22.92560005;stroke-dasharray:none;stroke-opacity:1"
       id="path140"
       inkscape:connector-curvature="0" /><path
       inkscape:connector-curvature="0"
       d="m 119.21093,343.8416 -0.4448,0.6344 c -0.93227,-0.45306 -1.99787,-0.53066 -3.19067,-0.22813 -0.8776,0.236 -2.52186,1.07187 -4.94213,2.51987 l -20.353599,12.09586 -0.558933,-0.39173 4.940666,-23.95466 c 0.598934,-2.88907 0.871867,-4.64174 0.8208,-5.25054 -0.05307,-0.6188 -0.4932,-1.29213 -1.3208,-2.01933 l 0.444267,-0.63427 11.091199,7.7656 -0.4448,0.63494 -0.3724,-0.26094 c -1.00267,-0.70213 -1.76987,-1.05626 -2.312,-1.06306 -0.38027,-0.0147 -0.68387,0.14586 -0.91667,0.47813 -0.14226,0.2036 -0.2672,0.4812 -0.3756,0.8224 -0.0984,0.33853 -0.31613,1.30626 -0.64946,2.88693 l -3.130136,14.9708 11.751066,-7.05053 c 1.41613,-0.8572 2.33747,-1.4536 2.7536,-1.78747 0.42133,-0.3296 0.7328,-0.65 0.94067,-0.9468 0.23693,-0.338 0.36146,-0.70267 0.3588,-1.0948 0.003,-0.38853 -0.12654,-0.77453 -0.38227,-1.1532 -0.35053,-0.54013 -0.93747,-1.09053 -1.7412,-1.6536 l 0.44427,-0.63493 7.59013,5.31506"
       style="fill:#fff200;fill-opacity:1;fill-rule:nonzero;stroke:none"
       id="path142" /><path
       inkscape:connector-curvature="0"
       d="m 128.2568,350.02347 -4.67654,10.5052 0.51294,0.22867 c 1.63706,0.72866 3.048,0.74106 4.24533,0.0453 1.1912,-0.7 2.336,-2.012 3.43493,-3.9204 l 0.7208,0.3208 -6.01666,13.51253 -0.7208,-0.3208 c 0.50053,-1.54426 0.71773,-2.888 0.64946,-4.0464 -0.0745,-1.162 -0.3584,-2.04373 -0.8636,-2.65773 -0.50146,-0.60467 -1.37133,-1.18653 -2.59893,-1.73333 l -3.2364,7.26973 c -0.63387,1.4224 -0.96,2.31253 -0.97813,2.686 -0.0251,0.37027 0.0869,0.7312 0.32866,1.08013 0.23227,0.35267 0.72134,0.68747 1.46187,1.0172 l 1.5396,0.68547 c 2.4104,1.07347 4.58853,1.37347 6.5412,0.9036 1.94947,-0.46253 3.7468,-1.70213 5.40213,-3.7052 l 0.70134,0.312 -4.80974,7.69067 -22.30826,-9.93294 0.3124,-0.70146 0.85733,0.38173 c 0.74733,0.3328 1.41253,0.46507 1.98547,0.4016 0.40933,-0.0281 0.79893,-0.2208 1.1676,-0.5776 0.27613,-0.23547 0.7032,-1.00267 1.28186,-2.3016 l 7.55774,-16.97493 c 0.52093,-1.16987 0.80626,-1.89854 0.8604,-2.19387 0.0729,-0.4968 -0.014,-0.9484 -0.2448,-1.33853 -0.32854,-0.5744 -0.90667,-1.04214 -1.74467,-1.41507 l -0.8568,-0.38173 0.31507,-0.70787 21.59973,9.61667 -3.39867,7.63333 -0.72,-0.32133 c 0.45867,-2.0292 0.54134,-3.59587 0.23467,-4.70574 -0.30133,-1.10733 -0.97733,-2.12453 -2.032,-3.0448 -0.60267,-0.54893 -1.88533,-1.25253 -3.84107,-2.12293 l -2.66346,-1.1864"
       style="fill:#fff200;fill-opacity:1;fill-rule:nonzero;stroke:none"
       id="path144" /><path
       inkscape:connector-curvature="0"
       d="m 150.27866,357.45054 8.928,20.53173 3.144,-11.73173 c 0.43734,-1.6344 0.50134,-2.8032 0.188,-3.5052 -0.43733,-0.94894 -1.41466,-1.61614 -2.94,-1.99534 l 0.20134,-0.7484 9.01066,2.41454 -0.2,0.7484 c -1.192,-0.16454 -2.01333,-0.17854 -2.47466,-0.052 -0.46,0.12706 -0.87334,0.42866 -1.23467,0.89893 -0.36133,0.46973 -0.716,1.35413 -1.06,2.63853 l -6.08933,22.72188 -0.68534,-0.18388 -12.36133,-27.6656 -4.64933,17.35107 c -0.42,1.5656 -0.34667,2.7192 0.228,3.462 0.56533,0.74787 1.316,1.2432 2.236,1.49 l 0.64533,0.17293 -0.19867,0.74174 -9.6776,-2.5932 0.19894,-0.74174 c 1.508,0.38907 2.63466,0.35987 3.388,-0.0864 0.752,-0.4464 1.32133,-1.39013 1.70933,-2.8396 l 5.16133,-19.2604 -0.38933,-0.8844 c -0.384,-0.876 -0.764,-1.486 -1.148,-1.83906 -0.37867,-0.3448 -0.98533,-0.63907 -1.80933,-0.8896 l 0.2,-0.7484 9.67866,2.5932"
       style="fill:#fff200;fill-opacity:1;fill-rule:nonzero;stroke:none"
       id="path146" /><path
       inkscape:connector-curvature="0"
       d="m 179.58266,365.51507 -1.40133,11.41307 0.55733,0.0688 c 1.77867,0.21813 3.132,-0.18187 4.07334,-1.198 0.93466,-1.01774 1.64533,-2.6068 2.13733,-4.75254 l 0.784,0.0957 -1.80267,14.68133 -0.78266,-0.0964 c 0.0267,-1.62293 -0.15867,-2.97133 -0.56267,-4.05987 -0.41067,-1.08906 -0.94,-1.84893 -1.60267,-2.28853 -0.656,-0.43173 -1.65866,-0.73387 -2.992,-0.898 l -0.96933,7.89853 c -0.19067,1.54587 -0.24267,2.49214 -0.15067,2.85467 0.084,0.36144 0.29734,0.67343 0.62934,0.93644 0.32666,0.2698 0.892,0.44636 1.696,0.54584 l 1.67333,0.20521 c 2.61867,0.32135 4.78933,-0.0281 6.51867,-1.04844 1.72933,-1.01252 3.08533,-2.72292 4.08266,-5.12238 l 0.76267,0.0932 -2.35067,8.7599 -24.23733,-2.97552 0.0933,-0.76249 0.93067,0.11459 c 0.812,0.0995 1.48667,0.0318 2.016,-0.19688 0.384,-0.14636 0.7,-0.44427 0.948,-0.89374 0.196,-0.30573 0.38,-1.16413 0.55333,-2.5756 l 2.264,-18.4432 c 0.156,-1.27026 0.216,-2.05146 0.18134,-2.34893 -0.0747,-0.4964 -0.29067,-0.90253 -0.62534,-1.2088 -0.48133,-0.45373 -1.17066,-0.73187 -2.08133,-0.84333 l -0.932,-0.11454 0.0947,-0.7692 23.468,2.88174 -1.01734,8.2932 -0.784,-0.0964 c -0.15466,-2.07494 -0.53333,-3.59787 -1.152,-4.56867 -0.61066,-0.9708 -1.55466,-1.74587 -2.832,-2.31827 -0.73733,-0.3484 -2.16933,-0.6464 -4.29466,-0.90733 l -2.89334,-0.3552"
       style="fill:#fff200;fill-opacity:1;fill-rule:nonzero;stroke:none"
       id="path148" /><path
       inkscape:connector-curvature="0"
       d="m 218.37333,364.80787 -16.136,26.95255 5.37466,-0.0937 c 2.53867,-0.0448 4.31334,-0.23229 5.324,-0.56927 1.64134,-0.52657 3.05467,-1.47604 4.22534,-2.8338 1.17066,-1.36413 1.96533,-3.17093 2.38,-5.4324 l 0.81066,-0.014 -0.96666,10.2302 -25.86667,0.45104 16.15733,-26.99577 -4.188,0.0733 c -1.628,0.0287 -2.69333,0.0969 -3.20266,0.20574 -0.972,0.1948 -1.88267,0.56613 -2.72667,1.12133 -0.844,0.548 -1.53466,1.27093 -2.088,2.16987 -0.54666,0.89893 -0.968,2.03013 -1.264,3.3932 l -0.768,0.0131 0.624,-8.28186 22.31067,-0.38947"
       style="fill:#fff200;fill-opacity:1;fill-rule:nonzero;stroke:none"
       id="path150" /><path
       inkscape:connector-curvature="0"
       d="m 217.79599,364.6604 14.356,-2.53173 0.13467,0.76307 -0.71333,0.126 c -1.07867,0.19013 -1.80134,0.43333 -2.168,0.7292 -0.36667,0.29573 -0.59867,0.66133 -0.69734,1.08333 -0.0973,0.42853 -0.0133,1.43907 0.26534,3.02187 l 2.40266,13.6208 c 0.44,2.4932 0.91867,4.10573 1.44,4.85106 0.52,0.73907 1.25334,1.29534 2.21067,1.6828 0.95467,0.38067 2.08667,0.4552 3.404,0.22294 1.50533,-0.2652 2.728,-0.82707 3.66533,-1.69334 0.94534,-0.86666 1.572,-1.938 1.888,-3.22133 0.31467,-1.2828 0.21467,-3.40253 -0.30533,-6.35827 l -2.00133,-11.3448 c -0.22,-1.2464 -0.50934,-2.112 -0.86267,-2.59893 -0.35333,-0.48653 -0.748,-0.79947 -1.17467,-0.93333 -0.672,-0.2068 -1.568,-0.20787 -2.696,-0.009 l -0.13466,-0.76293 9.62266,-1.69693 0.13467,0.76306 -0.57333,0.10094 c -0.77867,0.1376 -1.40267,0.40626 -1.86534,0.81306 -0.46266,0.40627 -0.75733,0.94227 -0.87733,1.6136 -0.0973,0.47187 -0.0507,1.2724 0.14933,2.40667 l 1.864,10.56773 c 0.576,3.2704 0.776,5.6688 0.604,7.19374 -0.17866,1.52613 -0.99466,3.04173 -2.44666,4.5548 -1.452,1.5124 -3.62667,2.5239 -6.512,3.03276 -2.40267,0.42396 -4.32267,0.42968 -5.752,0.0177 -1.94134,-0.56093 -3.40534,-1.4578 -4.38934,-2.6922 -0.97733,-1.2432 -1.67066,-3.01253 -2.08,-5.33066 l -2.40266,-13.62094 c -0.28,-1.5968 -0.54,-2.576 -0.792,-2.9364 -0.244,-0.36093 -0.60667,-0.61453 -1.088,-0.76826 -0.47734,-0.16147 -1.3,-0.1244 -2.47467,0.0969 l -0.13467,-0.76307"
       style="fill:#fff200;fill-opacity:1;fill-rule:nonzero;stroke:none"
       id="path152" /><path
       inkscape:connector-curvature="0"
       d="m 254.50399,357.77027 3.55334,10.936 0.53466,-0.174 c 1.704,-0.5536 2.76134,-1.488 3.18534,-2.8068 0.41733,-1.3172 0.38933,-3.05773 -0.0707,-5.21147 l 0.75067,-0.24373 4.57066,14.0672 -0.75066,0.24427 c -0.66134,-1.4828 -1.39867,-2.626 -2.22534,-3.4416 -0.832,-0.81414 -1.63333,-1.27867 -2.42,-1.39747 -0.77733,-0.114 -1.81333,0.036 -3.09066,0.45107 l 2.45866,7.56826 c 0.48134,1.48067 0.83467,2.36094 1.07067,2.65054 0.22933,0.2916 0.55333,0.48533 0.968,0.58226 0.408,0.10734 0.99467,0.0287 1.76667,-0.22186 l 1.60266,-0.5208 c 2.50934,-0.81574 4.328,-2.05 5.46534,-3.7052 1.13866,-1.64907 1.64533,-3.7724 1.53466,-6.36827 l 0.73067,-0.23747 1.572,8.93334 -23.22533,7.54573 -0.236,-0.73013 0.892,-0.29067 c 0.77733,-0.25213 1.36,-0.59893 1.744,-1.03013 0.28533,-0.2944 0.44533,-0.698 0.48133,-1.21 0.048,-0.35987 -0.148,-1.21614 -0.588,-2.56814 l -5.74133,-17.67186 c -0.396,-1.21774 -0.672,-1.95107 -0.82934,-2.20574 -0.27733,-0.41826 -0.64533,-0.69586 -1.07733,-0.83186 -0.628,-0.2072 -1.37067,-0.16774 -2.24267,0.1156 l -0.89333,0.29013 -0.24,-0.73693 22.488,-7.30627 2.58133,7.9464 -0.75066,0.24373 c -1.016,-1.8156 -2.00267,-3.03546 -2.97334,-3.65413 -0.96533,-0.62147 -2.148,-0.92453 -3.54666,-0.90427 -0.816,-0.004 -2.24,0.33187 -4.276,0.99334 l -2.77334,0.90093"
       style="fill:#fff200;fill-opacity:1;fill-rule:nonzero;stroke:none"
       id="path154" /><path
       inkscape:connector-curvature="0"
       d="m 299.30933,355.13494 3.884,9.19053 -21.94267,12.16307 -0.37333,-0.6724 0.82133,-0.45467 c 0.716,-0.39693 1.22133,-0.84747 1.516,-1.34427 0.224,-0.34373 0.304,-0.7708 0.24667,-1.28333 -0.028,-0.35893 -0.38267,-1.16147 -1.07334,-2.40573 l -9.00666,-16.2516 c -0.7,-1.26294 -1.208,-2.01454 -1.51334,-2.25934 -0.31333,-0.2412 -0.732,-0.36666 -1.27333,-0.3756 -0.536,-0.0124 -1.15467,0.17614 -1.84533,0.55894 l -0.82134,0.4552 -0.376,-0.6776 13.18,-7.3052 0.376,0.6776 -1.076,0.5964 c -0.72133,0.4 -1.22533,0.8416 -1.52533,1.34106 -0.21333,0.34694 -0.304,0.7708 -0.26,1.29067 0.032,0.36507 0.38667,1.16827 1.07333,2.40573 l 8.72534,15.7416 c 0.7,1.26254 1.22266,2.0292 1.55466,2.2928 0.34267,0.26507 0.768,0.37134 1.29067,0.30147 0.36667,-0.0572 1.128,-0.41453 2.29067,-1.05933 l 2.05866,-1.14067 c 1.312,-0.7276 2.28,-1.56453 2.90134,-2.5104 0.616,-0.9432 0.97066,-2.0916 1.05066,-3.44427 0.0893,-1.35053 -0.12133,-3.15253 -0.628,-5.41666 l 0.74534,-0.414"
       style="fill:#fff200;fill-opacity:1;fill-rule:nonzero;stroke:none"
       id="path156" /><path
       inkscape:connector-curvature="0"
       d="m 314.63999,345.9516 -7.86133,6.14267 0.75867,2.9 c 0.256,0.96307 0.56933,1.67547 0.936,2.1464 0.49066,0.6276 1.10266,0.89 1.83466,0.78693 0.43067,-0.0479 1.26,-0.488 2.49067,-1.30466 l 0.47333,0.60466 -7.40266,5.78387 -0.47334,-0.60467 c 0.69867,-0.74586 1.10134,-1.5928 1.188,-2.5344 0.0947,-0.94066 -0.14266,-2.56093 -0.71733,-4.84533 l -5.916,-23.9844 0.31333,-0.24533 22.288,11.98706 c 2.12,1.13174 3.59734,1.72814 4.44134,1.7916 0.64266,0.0485 1.32266,-0.16666 2.044,-0.64053 l 0.47333,0.6052 -10.77067,8.41453 -0.47333,-0.6052 0.44267,-0.34586 c 0.864,-0.6744 1.37866,-1.27494 1.53733,-1.78747 0.10533,-0.36147 0.032,-0.70987 -0.228,-1.04067 -0.152,-0.19626 -0.344,-0.37186 -0.57333,-0.52653 -0.1,-0.0833 -0.58267,-0.3656 -1.45467,-0.84733 z m -1.51066,-0.7776 -9.3,-5.07866 2.57066,10.3364 6.72934,-5.25774"
       style="fill:#fff200;fill-opacity:1;fill-rule:nonzero;stroke:none"
       id="path158" /><path
       inkscape:connector-curvature="0"
       d="m 349.85199,310.04894 c 3.772,0 6.83067,-3.05933 6.83067,-6.8312 0,-3.77187 -3.05867,-6.83133 -6.83067,-6.83133 -3.772,0 -6.83067,3.05946 -6.83067,6.83133 0,3.77187 3.05867,6.8312 6.83067,6.8312 z"
       style="fill:none;stroke:#fff200;stroke-width:0.28800002;stroke-linecap:butt;stroke-linejoin:miter;stroke-miterlimit:22.92560005;stroke-dasharray:none;stroke-opacity:1"
       id="path180" /><path
       d="m 57.669732,310.20107 c 3.7724,0 6.831333,-3.05946 6.831333,-6.83133 0,-3.77187 -3.058933,-6.83067 -6.831333,-6.83067 -3.771867,0 -6.830667,3.0588 -6.830667,6.83067 0,3.77187 3.0588,6.83133 6.830667,6.83133 m 292.182258,-0.15213 c 3.772,0 6.83067,-3.05933 6.83067,-6.8312 0,-3.77187 -3.05867,-6.83133 -6.83067,-6.83133 -3.772,0 -6.83067,3.05946 -6.83067,6.83133 0,3.77187 3.05867,6.8312 6.83067,6.8312 m -35.212,35.90266 -7.86133,6.14267 0.75867,2.9 c 0.256,0.96307 0.56933,1.67547 0.936,2.1464 0.49066,0.6276 1.10266,0.89 1.83466,0.78693 0.43067,-0.0479 1.26,-0.488 2.49067,-1.30466 l 0.47333,0.60466 -7.40266,5.78387 -0.47334,-0.60467 c 0.69867,-0.74586 1.10134,-1.5928 1.188,-2.5344 0.0947,-0.94066 -0.14266,-2.56093 -0.71733,-4.84533 l -5.916,-23.9844 0.31333,-0.24533 22.288,11.98706 c 2.12,1.13174 3.59734,1.72814 4.44134,1.7916 0.64266,0.0485 1.32266,-0.16666 2.044,-0.64053 l 0.47333,0.6052 -10.77067,8.41453 -0.47333,-0.6052 0.44267,-0.34586 c 0.864,-0.6744 1.37866,-1.27494 1.53733,-1.78747 0.10533,-0.36147 0.032,-0.70987 -0.228,-1.04067 -0.152,-0.19626 -0.344,-0.37186 -0.57333,-0.52653 -0.1,-0.0833 -0.58267,-0.3656 -1.45467,-0.84733 z m -1.51066,-0.7776 -9.3,-5.07866 2.57066,10.3364 z m -13.82,9.96094 3.884,9.19053 -21.94267,12.16307 -0.37333,-0.6724 0.82133,-0.45467 c 0.716,-0.39693 1.22133,-0.84747 1.516,-1.34427 0.224,-0.34373 0.304,-0.7708 0.24667,-1.28333 -0.028,-0.35893 -0.38267,-1.16147 -1.07334,-2.40573 l -9.00666,-16.2516 c -0.7,-1.26294 -1.208,-2.01454 -1.51334,-2.25934 -0.31333,-0.2412 -0.732,-0.36666 -1.27333,-0.3756 -0.536,-0.0124 -1.15467,0.17614 -1.84533,0.55894 l -0.82134,0.4552 -0.376,-0.6776 13.18,-7.3052 0.376,0.6776 -1.076,0.5964 c -0.72133,0.4 -1.22533,0.8416 -1.52533,1.34106 -0.21333,0.34694 -0.304,0.7708 -0.26,1.29067 0.032,0.36507 0.38667,1.16827 1.07333,2.40573 l 8.72534,15.7416 c 0.7,1.26254 1.22266,2.0292 1.55466,2.2928 0.34267,0.26507 0.768,0.37134 1.29067,0.30147 0.36667,-0.0572 1.128,-0.41453 2.29067,-1.05933 l 2.05866,-1.14067 c 1.312,-0.7276 2.28,-1.56453 2.90134,-2.5104 0.616,-0.9432 0.97066,-2.0916 1.05066,-3.44427 0.0893,-1.35053 -0.12133,-3.15253 -0.628,-5.41666 z m -44.80534,2.63533 3.55334,10.936 0.53466,-0.174 c 1.704,-0.5536 2.76134,-1.488 3.18534,-2.8068 0.41733,-1.3172 0.38933,-3.05773 -0.0707,-5.21147 l 0.75067,-0.24373 4.57066,14.0672 -0.75066,0.24427 c -0.66134,-1.4828 -1.39867,-2.626 -2.22534,-3.4416 -0.832,-0.81414 -1.63333,-1.27867 -2.42,-1.39747 -0.77733,-0.114 -1.81333,0.036 -3.09066,0.45107 l 2.45866,7.56826 c 0.48134,1.48067 0.83467,2.36094 1.07067,2.65054 0.22933,0.2916 0.55333,0.48533 0.968,0.58226 0.408,0.10734 0.99467,0.0287 1.76667,-0.22186 l 1.60266,-0.5208 c 2.50934,-0.81574 4.328,-2.05 5.46534,-3.7052 1.13866,-1.64907 1.64533,-3.7724 1.53466,-6.36827 l 0.73067,-0.23747 1.572,8.93334 -23.22533,7.54573 -0.236,-0.73013 0.892,-0.29067 c 0.77733,-0.25213 1.36,-0.59893 1.744,-1.03013 0.28533,-0.2944 0.44533,-0.698 0.48133,-1.21 0.048,-0.35987 -0.148,-1.21614 -0.588,-2.56814 l -5.74133,-17.67186 c -0.396,-1.21774 -0.672,-1.95107 -0.82934,-2.20574 -0.27733,-0.41826 -0.64533,-0.69586 -1.07733,-0.83186 -0.628,-0.2072 -1.37067,-0.16774 -2.24267,0.1156 l -0.89333,0.29013 -0.24,-0.73693 22.488,-7.30627 2.58133,7.9464 -0.75066,0.24373 c -1.016,-1.8156 -2.00267,-3.03546 -2.97334,-3.65413 -0.96533,-0.62147 -2.148,-0.92453 -3.54666,-0.90427 -0.816,-0.004 -2.24,0.33187 -4.276,0.99334 z m -36.708,6.89013 14.356,-2.53173 0.13467,0.76307 -0.71333,0.126 c -1.07867,0.19013 -1.80134,0.43333 -2.168,0.7292 -0.36667,0.29573 -0.59867,0.66133 -0.69734,1.08333 -0.0973,0.42853 -0.0133,1.43907 0.26534,3.02187 l 2.40266,13.6208 c 0.44,2.4932 0.91867,4.10573 1.44,4.85106 0.52,0.73907 1.25334,1.29534 2.21067,1.6828 0.95467,0.38067 2.08667,0.4552 3.404,0.22294 1.50533,-0.2652 2.728,-0.82707 3.66533,-1.69334 0.94534,-0.86666 1.572,-1.938 1.888,-3.22133 0.31467,-1.2828 0.21467,-3.40253 -0.30533,-6.35827 l -2.00133,-11.3448 c -0.22,-1.2464 -0.50934,-2.112 -0.86267,-2.59893 -0.35333,-0.48653 -0.748,-0.79947 -1.17467,-0.93333 -0.672,-0.2068 -1.568,-0.20787 -2.696,-0.009 l -0.13466,-0.76293 9.62266,-1.69693 0.13467,0.76306 -0.57333,0.10094 c -0.77867,0.1376 -1.40267,0.40626 -1.86534,0.81306 -0.46266,0.40627 -0.75733,0.94227 -0.87733,1.6136 -0.0973,0.47187 -0.0507,1.2724 0.14933,2.40667 l 1.864,10.56773 c 0.576,3.2704 0.776,5.6688 0.604,7.19374 -0.17866,1.52613 -0.99466,3.04173 -2.44666,4.5548 -1.452,1.5124 -3.62667,2.5239 -6.512,3.03276 -2.40267,0.42396 -4.32267,0.42968 -5.752,0.0177 -1.94134,-0.56093 -3.40534,-1.4578 -4.38934,-2.6922 -0.97733,-1.2432 -1.67066,-3.01253 -2.08,-5.33066 l -2.40266,-13.62094 c -0.28,-1.5968 -0.54,-2.576 -0.792,-2.9364 -0.244,-0.36093 -0.60667,-0.61453 -1.088,-0.76826 -0.47734,-0.16147 -1.3,-0.1244 -2.47467,0.0969 z m 0.57734,0.14747 -16.136,26.95255 5.37466,-0.0937 c 2.53867,-0.0448 4.31334,-0.23229 5.324,-0.56927 1.64134,-0.52657 3.05467,-1.47604 4.22534,-2.8338 1.17066,-1.36413 1.96533,-3.17093 2.38,-5.4324 l 0.81066,-0.014 -0.96666,10.2302 -25.86667,0.45104 16.15733,-26.99577 -4.188,0.0733 c -1.628,0.0287 -2.69333,0.0969 -3.20266,0.20574 -0.972,0.1948 -1.88267,0.56613 -2.72667,1.12133 -0.844,0.548 -1.53466,1.27093 -2.088,2.16987 -0.54666,0.89893 -0.968,2.03013 -1.264,3.3932 l -0.768,0.0131 0.624,-8.28186 z m -38.79067,0.7072 -1.40133,11.41307 0.55733,0.0688 c 1.77867,0.21813 3.132,-0.18187 4.07334,-1.198 0.93466,-1.01774 1.64533,-2.6068 2.13733,-4.75254 l 0.784,0.0957 -1.80267,14.68133 -0.78266,-0.0964 c 0.0267,-1.62293 -0.15867,-2.97133 -0.56267,-4.05987 -0.41067,-1.08906 -0.94,-1.84893 -1.60267,-2.28853 -0.656,-0.43173 -1.65866,-0.73387 -2.992,-0.898 l -0.96933,7.89853 c -0.19067,1.54587 -0.24267,2.49214 -0.15067,2.85467 0.084,0.36144 0.29734,0.67343 0.62934,0.93644 0.32666,0.2698 0.892,0.44636 1.696,0.54584 l 1.67333,0.20521 c 2.61867,0.32135 4.78933,-0.0281 6.51867,-1.04844 1.72933,-1.01252 3.08533,-2.72292 4.08266,-5.12238 l 0.76267,0.0932 -2.35067,8.7599 -24.23733,-2.97552 0.0933,-0.76249 0.93067,0.11459 c 0.812,0.0995 1.48667,0.0318 2.016,-0.19688 0.384,-0.14636 0.7,-0.44427 0.948,-0.89374 0.196,-0.30573 0.38,-1.16413 0.55333,-2.5756 l 2.264,-18.4432 c 0.156,-1.27026 0.216,-2.05146 0.18134,-2.34893 -0.0747,-0.4964 -0.29067,-0.90253 -0.62534,-1.2088 -0.48133,-0.45373 -1.17066,-0.73187 -2.08133,-0.84333 l -0.932,-0.11454 0.0947,-0.7692 23.468,2.88174 -1.01734,8.2932 -0.784,-0.0964 c -0.15466,-2.07494 -0.53333,-3.59787 -1.152,-4.56867 -0.61066,-0.9708 -1.55466,-1.74587 -2.832,-2.31827 -0.73733,-0.3484 -2.16933,-0.6464 -4.29466,-0.90733 z m -29.304,-8.06453 8.928,20.53173 3.144,-11.73173 c 0.43734,-1.6344 0.50134,-2.8032 0.188,-3.5052 -0.43733,-0.94894 -1.41466,-1.61614 -2.94,-1.99534 l 0.20134,-0.7484 9.01066,2.41454 -0.2,0.7484 c -1.192,-0.16454 -2.01333,-0.17854 -2.47466,-0.052 -0.46,0.12706 -0.87334,0.42866 -1.23467,0.89893 -0.36133,0.46973 -0.716,1.35413 -1.06,2.63853 l -6.08933,22.72188 -0.68534,-0.18388 -12.36133,-27.6656 -4.64933,17.35107 c -0.42,1.5656 -0.34667,2.7192 0.228,3.462 0.56533,0.74787 1.316,1.2432 2.236,1.49 l 0.64533,0.17293 -0.19867,0.74174 -9.6776,-2.5932 0.19894,-0.74174 c 1.508,0.38907 2.63466,0.35987 3.388,-0.0864 0.752,-0.4464 1.32133,-1.39013 1.70933,-2.8396 l 5.16133,-19.2604 -0.38933,-0.8844 c -0.384,-0.876 -0.764,-1.486 -1.148,-1.83906 -0.37867,-0.3448 -0.98533,-0.63907 -1.80933,-0.8896 l 0.2,-0.7484 z m -22.02186,-7.42707 -4.67654,10.5052 0.51294,0.22867 c 1.63706,0.72866 3.048,0.74106 4.24533,0.0453 1.1912,-0.7 2.336,-2.012 3.43493,-3.9204 l 0.7208,0.3208 -6.01666,13.51253 -0.7208,-0.3208 c 0.50053,-1.54426 0.71773,-2.888 0.64946,-4.0464 -0.0745,-1.162 -0.3584,-2.04373 -0.8636,-2.65773 -0.50146,-0.60467 -1.37133,-1.18653 -2.59893,-1.73333 l -3.2364,7.26973 c -0.63387,1.4224 -0.96,2.31253 -0.97813,2.686 -0.0251,0.37027 0.0869,0.7312 0.32866,1.08013 0.23227,0.35267 0.72134,0.68747 1.46187,1.0172 l 1.5396,0.68547 c 2.4104,1.07347 4.58853,1.37347 6.5412,0.9036 1.94947,-0.46253 3.7468,-1.70213 5.40213,-3.7052 l 0.70134,0.312 -4.80974,7.69067 -22.30826,-9.93294 0.3124,-0.70146 0.85733,0.38173 c 0.74733,0.3328 1.41253,0.46507 1.98547,0.4016 0.40933,-0.0281 0.79893,-0.2208 1.1676,-0.5776 0.27613,-0.23547 0.7032,-1.00267 1.28186,-2.3016 l 7.55774,-16.97493 c 0.52093,-1.16987 0.80626,-1.89854 0.8604,-2.19387 0.0729,-0.4968 -0.014,-0.9484 -0.2448,-1.33853 -0.32854,-0.5744 -0.90667,-1.04214 -1.74467,-1.41507 l -0.8568,-0.38173 0.31507,-0.70787 21.59973,9.61667 -3.39867,7.63333 -0.72,-0.32133 c 0.45867,-2.0292 0.54134,-3.59587 0.23467,-4.70574 -0.30133,-1.10733 -0.97733,-2.12453 -2.032,-3.0448 -0.60267,-0.54893 -1.88533,-1.25253 -3.84107,-2.12293 z m -9.04587,-6.18187 -0.4448,0.6344 c -0.93227,-0.45306 -1.99787,-0.53066 -3.19067,-0.22813 -0.8776,0.236 -2.52186,1.07187 -4.94213,2.51987 l -20.353599,12.09586 -0.558933,-0.39173 4.940666,-23.95466 c 0.598934,-2.88907 0.871867,-4.64174 0.8208,-5.25054 -0.05307,-0.6188 -0.4932,-1.29213 -1.3208,-2.01933 l 0.444267,-0.63427 11.091199,7.7656 -0.4448,0.63494 -0.3724,-0.26094 c -1.00267,-0.70213 -1.76987,-1.05626 -2.312,-1.06306 -0.38027,-0.0147 -0.68387,0.14586 -0.91667,0.47813 -0.14226,0.2036 -0.2672,0.4812 -0.3756,0.8224 -0.0984,0.33853 -0.31613,1.30626 -0.64946,2.88693 l -3.130136,14.9708 11.751066,-7.05053 c 1.41613,-0.8572 2.33747,-1.4536 2.7536,-1.78747 0.42133,-0.3296 0.7328,-0.65 0.94067,-0.9468 0.23693,-0.338 0.36146,-0.70267 0.3588,-1.0948 0.003,-0.38853 -0.12654,-0.77453 -0.38227,-1.1532 -0.35053,-0.54013 -0.93747,-1.09053 -1.7412,-1.6536 l 0.44427,-0.63493 z"
       style="fill:#ffff00;fill-opacity:1;fill-rule:evenodd;stroke:none"
       id="path182"
       inkscape:connector-curvature="0" /><path
       inkscape:connector-curvature="0"
       d="m 57.669732,310.20107 c 3.7724,0 6.831333,-3.05946 6.831333,-6.83133 0,-3.77187 -3.058933,-6.83067 -6.831333,-6.83067 -3.771867,0 -6.830667,3.0588 -6.830667,6.83067 0,3.77187 3.0588,6.83133 6.830667,6.83133 z"
       style="fill:none;stroke:#fff200;stroke-width:0.28800002;stroke-linecap:butt;stroke-linejoin:miter;stroke-miterlimit:22.92560005;stroke-dasharray:none;stroke-opacity:1"
       id="path184" /><path
       inkscape:connector-curvature="0"
       d="m 200.97866,355.76147 c 85.14533,0 154.19466,-69.05 154.19466,-154.19479 0,-85.14534 -69.04933,-154.196001 -154.19466,-154.196001 -85.14533,0 -154.195328,69.050661 -154.195328,154.196001 0,85.14479 69.049998,154.19479 154.195328,154.19479"
       style="fill:#6699ff;fill-opacity:1;fill-rule:evenodd;stroke:none"
       id="path186" /><g
       transform="matrix(0.13333333,0,0,-0.13333333,0,402.66667)"
       id="g188"><path
         inkscape:connector-curvature="0"
         d="m 1507.34,351.789 c 638.59,0 1156.46,517.875 1156.46,1156.461 0,638.59 -517.87,1156.47 -1156.46,1156.47 -638.59,0 -1156.465,-517.88 -1156.465,-1156.47 0,-638.586 517.875,-1156.461 1156.465,-1156.461 z"
         style="fill:none;stroke:#fff200;stroke-width:28.34749985;stroke-linecap:butt;stroke-linejoin:miter;stroke-miterlimit:22.92560005;stroke-dasharray:none;stroke-opacity:1"
         id="path190" /></g><path
       inkscape:connector-curvature="0"
       d="m 163.63466,220.94267 c -2.92533,-1.30133 -5.92133,-3.78133 -8.19733,-6.70533"
       style="fill:none;stroke:#fff200;stroke-width:3.77953339;stroke-linecap:butt;stroke-linejoin:miter;stroke-miterlimit:22.92560005;stroke-dasharray:none;stroke-opacity:1"
       id="path192" /><path
       inkscape:connector-curvature="0"
       d="m 151.972,189.36401 c 1.79466,-2.59467 7.07333,-6.22 11.14,-7.51867"
       style="fill:none;stroke:#fff200;stroke-width:3.77953339;stroke-linecap:butt;stroke-linejoin:miter;stroke-miterlimit:22.92560005;stroke-dasharray:none;stroke-opacity:1"
       id="path194" /><path
       inkscape:connector-curvature="0"
       d="m 249.56133,256.41201 c -11.29467,-1.86934 -25.22667,-5.72934 -35.22134,-10.848"
       style="fill:none;stroke:#fff200;stroke-width:3.77953339;stroke-linecap:butt;stroke-linejoin:miter;stroke-miterlimit:22.92560005;stroke-dasharray:none;stroke-opacity:1"
       id="path196" /><path
       inkscape:connector-curvature="0"
       d="m 186.17866,167.65468 8.74267,-65.45867 c 4.10667,-1.64 8.31466,-1.056 12.42133,1.756 l 8.464,63.70267 15.82933,-10.396 42.60267,-27.97867 -39.516,57.47733 111.516,14.928 -111.516,14.66533 39.516,57.76294 -58.432,-38.69494 -1.56267,11.792 -6.73733,50.82574 c -4.12,3.3276 -8.36933,4.53813 -12.516,3.524 l -6.85066,-51.4204 -1.96134,-14.72134 -9.51866,6.31334 -7.676,5.09066 c -1.52667,-9.608 -2.65467,-19.35866 -3.26934,-29.196 l 0.856,-1.27733 -0.94133,-0.124 c -0.56,-9.71067 -0.616,-19.50533 -0.0653,-29.332 l 1.00666,-0.136 -0.91733,-1.36 c 0.34533,-5.53466 0.884,-11.07866 1.63733,-16.62266 0.58534,-4.3 1.23467,-8.384 1.936,-12.26934 z m 21.328,130.38173 -6.476,48.86466 -6.04,-45.34066 c 4.14667,1.01413 8.396,-0.1964 12.516,-3.524 z m -12.58533,-195.8404 6.10933,-45.747998 6.312,47.503998 c -4.10667,-2.812 -8.31466,-3.396 -12.42133,-1.756 z m -25.93733,144.62666 -41.14907,27.29094 37.87973,-56.48694 c 0.61467,9.83734 1.74267,19.588 3.26934,29.196 z m -3.35467,-30.59733 -109.736665,-14.54 109.671335,-14.792 c -0.55067,9.82667 -0.49467,19.62133 0.0653,29.332 z m 0.024,-30.828 -37.8184,-56.11733 41.39173,27.22533 c -0.70133,3.88534 -1.35066,7.96934 -1.936,12.26934 -0.75333,5.544 -1.292,11.088 -1.63733,16.62266"
       style="fill:#000000;fill-opacity:1;fill-rule:evenodd;stroke:none"
       id="path198" /><path
       inkscape:connector-curvature="0"
       d="m 186.17866,167.65468 8.74267,-65.45867 c 4.10667,-1.64 8.31466,-1.056 12.42133,1.756 l 8.464,63.70267 15.82933,-10.396 42.60267,-27.97867 -39.516,57.47733 111.516,14.928 -111.516,14.66533 39.516,57.76294 -58.432,-38.69494 -1.56267,11.792 -6.73733,50.82574 c -4.12,3.3276 -8.36933,4.53813 -12.516,3.524 l -6.85066,-51.4204 -1.96134,-14.72134 -9.51866,6.31334 -7.676,5.09066 c -1.52667,-9.608 -2.65467,-19.35866 -3.26934,-29.196 l 0.856,-1.27733 -0.94133,-0.124 c -0.56,-9.71067 -0.616,-19.50533 -0.0653,-29.332 l 1.00666,-0.136 -0.91733,-1.36 c 0.34533,-5.53466 0.884,-11.07866 1.63733,-16.62266 0.58534,-4.3 1.23467,-8.384 1.936,-12.26934 z m 21.328,130.38173 -6.476,48.86466 -6.04,-45.34066 c 4.14667,1.01413 8.396,-0.1964 12.516,-3.524 z m -12.58533,-195.8404 6.10933,-45.747998 6.312,47.503998 c -4.10667,-2.812 -8.31466,-3.396 -12.42133,-1.756 z m -25.93733,144.62666 -41.14907,27.29094 37.87973,-56.48694 c 0.61467,9.83734 1.74267,19.588 3.26934,29.196 z m -3.35467,-30.59733 -109.736665,-14.54 109.671335,-14.792 c -0.55067,9.82667 -0.49467,19.62133 0.0653,29.332 z m 0.024,-30.828 -37.8184,-56.11733 41.39173,27.22533 c -0.70133,3.88534 -1.35066,7.96934 -1.936,12.26934 -0.75333,5.544 -1.292,11.088 -1.63733,16.62266 z"
       style="fill:none;stroke:#000000;stroke-width:1.33341324;stroke-linecap:butt;stroke-linejoin:miter;stroke-miterlimit:22.92560005;stroke-dasharray:none;stroke-opacity:1"
       id="path200" /><path
       inkscape:connector-curvature="0"
       d="m 201.03199,201.69068 -64.36399,-63.6 35.15333,51.13866 -104.779198,12.46134 H 201.03199"
       style="fill:#ffffff;fill-opacity:1;fill-rule:evenodd;stroke:none"
       id="path202" /><path
       inkscape:connector-curvature="0"
       d="m 201.03199,201.69068 -64.36399,-63.6 35.15333,51.13866 -104.779198,12.46134 z"
       style="fill:none;stroke:#ffffff;stroke-width:0.28800002;stroke-linecap:butt;stroke-linejoin:miter;stroke-miterlimit:22.92560005;stroke-dasharray:none;stroke-opacity:1"
       id="path204" /><path
       inkscape:connector-curvature="0"
       d="m 201.03199,201.69068 63.6,-64.364 -51.13866,35.15333 L 201.03199,67.701345 V 201.69068"
       style="fill:#ffffff;fill-opacity:1;fill-rule:evenodd;stroke:none"
       id="path206" /><path
       inkscape:connector-curvature="0"
       d="m 201.03199,201.69068 63.6,-64.364 -51.13866,35.15333 -12.46134,-104.778665 z"
       style="fill:none;stroke:#ffffff;stroke-width:0.28800002;stroke-linecap:butt;stroke-linejoin:miter;stroke-miterlimit:22.92560005;stroke-dasharray:none;stroke-opacity:1"
       id="path208" /><path
       inkscape:connector-curvature="0"
       d="m 201.03199,201.69068 64.364,63.59999 -35.152,-51.13866 104.77733,-12.46133 H 201.03199"
       style="fill:#ffffff;fill-opacity:1;fill-rule:evenodd;stroke:none"
       id="path210" /><path
       inkscape:connector-curvature="0"
       d="m 201.03199,201.69068 64.364,63.59999 -35.152,-51.13866 104.77733,-12.46133 z"
       style="fill:none;stroke:#ffffff;stroke-width:0.28800002;stroke-linecap:butt;stroke-linejoin:miter;stroke-miterlimit:22.92560005;stroke-dasharray:none;stroke-opacity:1"
       id="path212" /><path
       inkscape:connector-curvature="0"
       d="m 201.03199,201.69068 -63.59999,64.36399 51.14,-35.152 12.45999,104.7776 V 201.69068"
       style="fill:#ffffff;fill-opacity:1;fill-rule:evenodd;stroke:none"
       id="path214" /><path
       inkscape:connector-curvature="0"
       d="m 201.03199,201.69068 -63.59999,64.36399 51.14,-35.152 12.45999,104.7776 z"
       style="fill:none;stroke:#ffffff;stroke-width:0.28800002;stroke-linecap:butt;stroke-linejoin:miter;stroke-miterlimit:22.92560005;stroke-dasharray:none;stroke-opacity:1"
       id="path216" /><path
       inkscape:connector-curvature="0"
       d="m 284.49333,179.24001 c 3.09866,0 5.61066,-2.51333 5.61066,-5.612 0,-3.09867 -2.512,-5.61067 -5.61066,-5.61067 -3.09867,0 -5.612,2.512 -5.612,5.61067 0,3.09867 2.51333,5.612 5.612,5.612"
       style="fill:#fff200;fill-opacity:1;fill-rule:evenodd;stroke:none"
       id="path218" /><path
       inkscape:connector-curvature="0"
       d="m 284.49333,179.24001 c 3.09866,0 5.61066,-2.51333 5.61066,-5.612 0,-3.09867 -2.512,-5.61067 -5.61066,-5.61067 -3.09867,0 -5.612,2.512 -5.612,5.61067 0,3.09867 2.51333,5.612 5.612,5.612 z"
       style="fill:none;stroke:#fff200;stroke-width:0.28800002;stroke-linecap:butt;stroke-linejoin:miter;stroke-miterlimit:22.92560005;stroke-dasharray:none;stroke-opacity:1"
       id="path220" /><path
       inkscape:connector-curvature="0"
       d="m 216.88266,291.86254 c 3.09867,0 5.612,-2.51253 5.612,-5.61093 0,-3.09894 -2.51333,-5.61147 -5.612,-5.61147 -3.09867,0 -5.61067,2.51253 -5.61067,5.61147 0,3.0984 2.512,5.61093 5.61067,5.61093"
       style="fill:#fff200;fill-opacity:1;fill-rule:evenodd;stroke:none"
       id="path222" /><path
       inkscape:connector-curvature="0"
       d="m 216.88266,291.86254 c 3.09867,0 5.612,-2.51253 5.612,-5.61093 0,-3.09894 -2.51333,-5.61147 -5.612,-5.61147 -3.09867,0 -5.61067,2.51253 -5.61067,5.61147 0,3.0984 2.512,5.61093 5.61067,5.61093 z"
       style="fill:none;stroke:#fff200;stroke-width:0.28800002;stroke-linecap:butt;stroke-linejoin:miter;stroke-miterlimit:22.92560005;stroke-dasharray:none;stroke-opacity:1"
       id="path224" /><path
       inkscape:connector-curvature="0"
       d="m 119.85933,181.86001 c 3.09907,0 5.61147,-2.512 5.61147,-5.61067 0,-3.1 -2.5124,-5.612 -5.61147,-5.612 -3.0984,0 -5.61093,2.512 -5.61093,5.612 0,3.09867 2.51253,5.61067 5.61093,5.61067"
       style="fill:#fff200;fill-opacity:1;fill-rule:evenodd;stroke:none"
       id="path226" /><path
       inkscape:connector-curvature="0"
       d="m 119.85933,181.86001 c 3.09907,0 5.61147,-2.512 5.61147,-5.61067 0,-3.1 -2.5124,-5.612 -5.61147,-5.612 -3.0984,0 -5.61093,2.512 -5.61093,5.612 0,3.09867 2.51253,5.61067 5.61093,5.61067 z"
       style="fill:none;stroke:#fff200;stroke-width:0.28800002;stroke-linecap:butt;stroke-linejoin:miter;stroke-miterlimit:22.92560005;stroke-dasharray:none;stroke-opacity:1"
       id="path228" /><path
       inkscape:connector-curvature="0"
       d="m 131.88333,191.87734 c -36.539599,-41.472 -14.77707,-60.04666 40.18067,-41.63066 31.77599,10.89866 60.39333,28.756 87.61866,50.70533 36.22267,32.32133 39.03467,59.38 3.016,57.41066"
       style="fill:none;stroke:#fff200;stroke-width:3.77953339;stroke-linecap:butt;stroke-linejoin:miter;stroke-miterlimit:22.92560005;stroke-dasharray:none;stroke-opacity:1"
       id="path230" /><path
       inkscape:connector-curvature="0"
       d="m 262.65466,256.25601 3.004,4.4 -3.20267,-0.25867 0.19867,-4.14133"
       style="fill:#000000;fill-opacity:1;fill-rule:evenodd;stroke:none"
       id="path232" /><path
       inkscape:connector-curvature="0"
       d="m 262.65466,256.25601 3.004,4.4 -3.20267,-0.25867 z"
       style="fill:none;stroke:#000000;stroke-width:0.28800002;stroke-linecap:butt;stroke-linejoin:miter;stroke-miterlimit:22.92560005;stroke-dasharray:none;stroke-opacity:1"
       id="path234" /><path
       inkscape:connector-curvature="0"
       d="m 128.19733,191.42801 5.612,-0.79333 -0.89947,1.008 -2.3792,1.90933 -2.33333,-2.124"
       style="fill:#000000;fill-opacity:1;fill-rule:evenodd;stroke:none"
       id="path236" /><path
       inkscape:connector-curvature="0"
       d="m 128.19733,191.42801 5.612,-0.79333 -0.89947,1.008 -2.3792,1.90933 z"
       style="fill:none;stroke:#000000;stroke-width:0.28800002;stroke-linecap:butt;stroke-linejoin:miter;stroke-miterlimit:22.92560005;stroke-dasharray:none;stroke-opacity:1"
       id="path238" /><path
       inkscape:connector-curvature="0"
       d="m 214.55866,156.97468 c 66.74667,-26.01867 104.884,-12.27067 45.17067,44.95466 -26.97867,24.216 -58.488,39.13467 -89.37067,49.03733 -53.954,17.20934 -78.540396,3.792 -40.90866,-40.192"
       style="fill:none;stroke:#fff200;stroke-width:3.77953339;stroke-linecap:butt;stroke-linejoin:miter;stroke-miterlimit:22.92560005;stroke-dasharray:none;stroke-opacity:1"
       id="path240" /><path
       inkscape:connector-curvature="0"
       d="m 214.57199,154.64001 0.56534,4.26133 -1.724,-3.65066 1.15866,-0.61067"
       style="fill:#000000;fill-opacity:1;fill-rule:evenodd;stroke:none"
       id="path242" /><path
       inkscape:connector-curvature="0"
       d="m 214.57199,154.64001 0.56534,4.26133 -1.724,-3.65066 z"
       style="fill:none;stroke:#000000;stroke-width:0.28800002;stroke-linecap:butt;stroke-linejoin:miter;stroke-miterlimit:22.92560005;stroke-dasharray:none;stroke-opacity:1"
       id="path244" /><path
       inkscape:connector-curvature="0"
       d="m 125.87973,211.48934 5.56613,0.71867 -3.462,-3.42267 -1.52453,1.74267 -0.5796,0.96133"
       style="fill:#000000;fill-opacity:1;fill-rule:evenodd;stroke:none"
       id="path246" /><path
       inkscape:connector-curvature="0"
       d="m 125.87973,211.48934 5.56613,0.71867 -3.462,-3.42267 -1.52453,1.74267 z"
       style="fill:none;stroke:#000000;stroke-width:0.28800002;stroke-linecap:butt;stroke-linejoin:miter;stroke-miterlimit:22.92560005;stroke-dasharray:none;stroke-opacity:1"
       id="path248" /><path
       inkscape:connector-curvature="0"
       d="m 231.34533,157.51868 c -15.76667,-77.910669 -52.30533,-75.153335 -64.05467,11.256 -3.83333,28.19866 -2.13866,56.38933 2.58,83.37199 12.608,72.10334 47.36533,62.132 60.74267,-7.04133"
       style="fill:none;stroke:#fff200;stroke-width:3.77953339;stroke-linecap:butt;stroke-linejoin:miter;stroke-miterlimit:22.92560005;stroke-dasharray:none;stroke-opacity:1"
       id="path250" /><path
       inkscape:connector-curvature="0"
       d="m 232.52799,247.07467 -3.56666,-2.33733 3.484,0.47467 0.0827,1.86266"
       style="fill:#000000;fill-opacity:1;fill-rule:evenodd;stroke:none"
       id="path252" /><path
       inkscape:connector-curvature="0"
       d="m 232.52799,247.07467 -3.56666,-2.33733 3.484,0.47467 z"
       style="fill:none;stroke:#000000;stroke-width:0.28800002;stroke-linecap:butt;stroke-linejoin:miter;stroke-miterlimit:22.92560005;stroke-dasharray:none;stroke-opacity:1"
       id="path254" /><path
       inkscape:connector-curvature="0"
       d="m 229.34133,158.14268 3.82,-2.49067 0.0773,1.552 -3.89733,0.93867"
       style="fill:#000000;fill-opacity:1;fill-rule:evenodd;stroke:none"
       id="path256" /><path
       inkscape:connector-curvature="0"
       d="m 229.34133,158.14268 3.82,-2.49067 0.0773,1.552 z"
       style="fill:none;stroke:#000000;stroke-width:0.28800002;stroke-linecap:butt;stroke-linejoin:miter;stroke-miterlimit:22.92560005;stroke-dasharray:none;stroke-opacity:1"
       id="path258" /></g></svg>